# xmcd
# 
# Track frame offsets:
#     150
#     16927
#     28751
#     42193
#     58300
#     73772
#     88498
#     101145
#     115453
#     130712
#     146217
#     163262
#     180057
#     195551
#     210083
#     229242
#     242837
# 
# Disc length: 3465
# 
# Revision: 0
# Processed by: cddbd v1.5.2PL0 Copyright (c) Steve Scherf et al.
# Submitted via: fre:ac v1.0.31
# 
DISCID=f50d8711
DTITLE=Thomas Rhett - Life Changes [Deluxe]
DYEAR=2017
DGENRE=Country
TTITLE0=Craving You (feat. Maren Morris)
TTITLE1=Unforgettable
TTITLE2=Sixteen
TTITLE3=Drink a Little Beer (feat. Rhett Akins)
TTITLE4=Marry Me
TTITLE5=Leave Right Now
TTITLE6=Smooth Like the Summer
TTITLE7=Life Changes
TTITLE8=When You Look Like That
TTITLE9=Sweetheart
TTITLE10=Kiss Me Like a Stranger
TTITLE11=Renegades
TTITLE12=Gateway Love
TTITLE13=Grave
TTITLE14=Country Gold
TTITLE15=Cardboard Heart
TTITLE16=When We're 80
EXTD=
EXTT0=
EXTT1=
EXTT2=
EXTT3=
EXTT4=
EXTT5=
EXTT6=
EXTT7=
EXTT8=
EXTT9=
EXTT10=
EXTT11=
EXTT12=
EXTT13=
EXTT14=
EXTT15=
EXTT16=
PLAYORDER=
